<?xml version="1.0" encoding="UTF-8"?>
<!DOCTYPE svg PUBLIC "-//W3C//DTD SVG 1.1//EN" "http://www.w3.org/Graphics/SVG/1.1/DTD/svg11.dtd">
<!-- Creator: CorelDRAW X6 -->
<svg xmlns="http://www.w3.org/2000/svg" xml:space="preserve" width="210mm" height="297mm" version="1.1" style="shape-rendering:geometricPrecision; text-rendering:geometricPrecision; image-rendering:optimizeQuality; fill-rule:evenodd; clip-rule:evenodd"
viewBox="0 0 21000 29700"
 xmlns:xlink="http://www.w3.org/1999/xlink">
 <defs>
  <style type="text/css">
   <![CDATA[
    .fil0 {fill:#0008FC}
    .fil1 {fill:#CA3C32}
    .fil2 {fill:white}
    .fil3 {fill:white;fill-rule:nonzero}
   ]]>
  </style>
 </defs>
 <g id="Layer_x0020_1">
  <metadata id="CorelCorpID_0Corel-Layer"/>
  <g id="_127582192">
   <g>
    <path class="fil0" d="M15580 11040l-10160 0 0 7620 10160 0 0 -7620zm-139 139l-9882 0 0 7342 9882 0 0 -7342z"/>
    <polygon class="fil1" points="5559,11179 5559,18521 15441,18521 15441,11179 "/>
   </g>
   <g>
    <g>
     <g>
      <polygon class="fil2" points="10255,13116 10488,12527 10497,12505 10506,12527 10739,13116 10972,13705 10978,13719 10963,13719 10582,13719 10577,13707 10541,13620 10506,13532 10497,13511 10488,13532 10453,13620 10417,13707 10412,13719 10031,13719 10016,13719 10022,13705 "/>
      <polygon class="fil3" points="10227,12368 10487,12486 10497,12490 10506,12486 10767,12368 10780,12362 10780,12378 10780,12495 10780,12505 10771,12505 10531,12505 10510,12505 10484,12505 10463,12505 10223,12505 10214,12505 10214,12495 10214,12378 10214,12362 "/>
     </g>
     <g>
      <polygon class="fil2" points="9105,13815 8853,13233 8844,13212 8865,13221 9447,13473 10028,13725 10042,13731 10032,13741 9762,14010 9750,14005 9663,13968 9576,13932 9555,13923 9564,13944 9600,14031 9637,14118 9642,14131 9373,14400 9362,14410 9356,14396 "/>
      <polygon class="fil3" points="8556,13306 8823,13205 8833,13201 8837,13191 8938,12924 8943,12911 8954,12921 9037,13004 9044,13011 9037,13018 8867,13188 8853,13202 8834,13221 8820,13235 8650,13405 8643,13412 8636,13405 8553,13322 8543,13311 "/>
     </g>
     <g>
      <polygon class="fil2" points="8785,15122 8196,14889 8174,14880 8196,14872 8785,14639 9375,14405 9389,14400 9389,14414 9389,14795 9377,14800 9289,14836 9201,14872 9180,14880 9201,14889 9289,14925 9377,14961 9389,14966 9389,15347 9389,15361 9375,15356 "/>
      <polygon class="fil3" points="8038,15151 8155,14890 8159,14881 8155,14871 8038,14610 8032,14597 8047,14597 8164,14597 8174,14597 8174,14607 8174,14847 8174,14867 8174,14894 8174,14914 8174,15154 8174,15164 8164,15164 8047,15164 8032,15164 "/>
     </g>
     <g>
      <polygon class="fil2" points="9484,16273 8903,16524 8881,16534 8890,16512 9142,15931 9394,15349 9400,15335 9410,15345 9680,15615 9674,15627 9638,15714 9601,15802 9592,15823 9613,15814 9701,15777 9788,15740 9800,15735 10070,16005 10080,16015 10066,16021 "/>
      <polygon class="fil3" points="8975,16821 8874,16554 8870,16545 8861,16541 8593,16440 8580,16434 8591,16424 8674,16341 8681,16334 8688,16340 8857,16510 8872,16525 8890,16543 8905,16558 9075,16727 9081,16734 9074,16741 8991,16824 8980,16835 "/>
     </g>
     <g>
      <polygon class="fil2" points="10792,16592 10559,17181 10550,17203 10541,17181 10308,16592 10075,16003 10069,15989 10083,15989 10465,15989 10470,16001 10505,16089 10541,16176 10550,16197 10558,16176 10594,16089 10630,16001 10635,15989 11016,15989 11030,15989 11025,16003 "/>
      <polygon class="fil3" points="10820,17340 10559,17223 10550,17218 10540,17223 10280,17340 10267,17346 10267,17331 10267,17213 10267,17203 10276,17203 10516,17203 10537,17203 10563,17203 10583,17203 10824,17203 10833,17203 10833,17213 10833,17331 10833,17346 "/>
     </g>
     <g>
      <polygon class="fil2" points="11942,15893 12194,16475 12203,16496 12182,16487 11600,16235 11018,15984 11005,15978 11015,15967 11284,15698 11296,15703 11384,15740 11471,15776 11492,15785 11483,15764 11446,15677 11410,15590 11405,15578 11674,15308 11684,15298 11690,15312 "/>
      <polygon class="fil3" points="12491,16402 12224,16503 12214,16507 12210,16517 12109,16784 12104,16797 12093,16787 12010,16704 12003,16697 12010,16690 12179,16520 12194,16506 12212,16487 12227,16473 12397,16303 12403,16296 12411,16303 12493,16386 12504,16397 "/>
     </g>
     <g>
      <polygon class="fil2" points="12261,14586 12851,14819 12872,14828 12851,14836 12261,15069 11672,15303 11658,15308 11658,15294 11658,14913 11670,14908 11758,14872 11846,14836 11867,14828 11846,14819 11758,14783 11670,14747 11658,14742 11658,14361 11658,14347 11672,14353 "/>
      <polygon class="fil3" points="13009,14558 12892,14818 12888,14828 12892,14837 13009,15098 13015,15111 13000,15111 12883,15111 12872,15111 12872,15101 12872,14861 12872,14841 12872,14814 12872,14794 12872,14554 12872,14544 12883,14544 13000,14544 13015,14544 "/>
     </g>
     <g>
      <polygon class="fil2" points="11563,13435 12144,13184 12166,13174 12156,13196 11905,13777 11653,14359 11647,14373 11637,14363 11367,14093 11372,14081 11409,13994 11446,13906 11455,13885 11434,13894 11346,13931 11259,13968 11247,13973 10977,13703 10967,13693 10981,13687 "/>
      <polygon class="fil3" points="12071,12887 12173,13154 12176,13164 12186,13167 12453,13269 12467,13274 12456,13284 12373,13367 12366,13374 12359,13368 12189,13198 12175,13184 12156,13165 12142,13151 11972,12981 11966,12974 11973,12967 12056,12884 12066,12873 "/>
     </g>
    </g>
    <path class="fil3" d="M7436 14171c-63,-18 -108,-50 -133,-95 -25,-45 -29,-100 -11,-163 18,-65 50,-110 95,-135 45,-25 98,-29 161,-11 45,13 80,31 105,55 25,24 41,52 49,86 8,34 6,72 -6,115 -12,44 -30,78 -52,103 -22,25 -51,42 -86,51 -35,9 -76,7 -121,-5zm34 -120c39,11 70,12 91,2 21,-10 36,-27 43,-52 7,-26 5,-48 -8,-67 -13,-19 -41,-35 -84,-47 -37,-10 -65,-11 -86,-1 -21,10 -35,28 -42,53 -7,24 -4,46 9,66 13,20 39,35 79,46zm266 -537l-75 -38 88 -172 153 78c6,44 6,81 1,111 -5,29 -16,61 -34,96 -22,43 -47,74 -75,93 -28,19 -61,29 -97,29 -36,0 -73,-9 -110,-29 -39,-20 -69,-46 -90,-77 -21,-31 -31,-66 -30,-105 1,-30 12,-66 33,-107 20,-40 39,-68 56,-84 17,-16 37,-27 59,-32 22,-5 46,-5 73,0l-36 117c-16,-3 -30,0 -43,6 -13,7 -23,18 -32,35 -12,24 -14,48 -4,71 10,23 33,44 69,63 39,20 70,27 95,21 24,-6 43,-22 56,-48 6,-12 11,-25 13,-38 2,-13 3,-29 2,-48l-34 -17 -38 74zm-73 -403l72 -102 248 177 113 -159 81 58 -185 261 -329 -234zm670 -300l-98 102 34 61 -88 92 -188 -389 94 -99 397 169 -90 95 -62 -31zm-82 -41l-136 -68 75 132 61 -64zm12 -369l98 -77 188 240 154 -121 61 78 -252 198 -250 -318zm721 -103l-119 76 19 67 -107 69 -90 -422 115 -74 346 258 -110 71 -53 -45zm-69 -59l-116 -98 41 146 74 -48zm314 -438l118 -40 98 289 185 -63 32 94 -303 103 -130 -383zm715 145l-138 32 -5 69 -124 29 57 -428 133 -31 238 360 -127 29 -35 -60zm-45 -79l-76 -132 -11 151 86 -20zm219 -285l124 -9 12 152 119 -162 166 -13 -136 163 173 240 -153 12 -98 -159 -60 72 7 98 -124 9 -31 -403zm491 175c8,-65 33,-114 74,-146 41,-32 94,-44 159,-35 67,8 116,33 147,73 32,40 43,93 35,157 -6,47 -19,84 -38,112 -20,28 -45,48 -77,61 -32,13 -70,16 -115,11 -45,-6 -82,-18 -110,-36 -28,-18 -49,-44 -63,-78 -14,-33 -19,-74 -13,-120zm124 16c-5,40 -1,70 12,90 13,20 32,31 58,34 27,3 48,-3 65,-18 17,-15 28,-46 34,-90 5,-38 1,-66 -12,-85 -13,-19 -33,-31 -59,-34 -25,-3 -46,3 -64,19 -17,16 -29,44 -34,85zm381 -151l370 85 -22 97 -124 -29 -68 296 -122 -28 68 -296 -124 -29 22 -97zm550 521l-132 -52 -43 55 -119 -47 290 -320 127 50 -7 432 -122 -48 6 -69zm8 -91l12 -151 -94 119 82 32zm545 -10l95 68 -6 270 129 -182 96 68 -234 329 -96 -68 6 -268 -129 181 -96 -68 234 -329zm368 724l-102 -98 -61 34 -92 -88 389 -188 99 94 -169 397 -95 -90 31 -62zm41 -82l68 -136 -132 75 64 61zm324 -38l235 299 -79 62 -79 -100 -239 188 -77 -98 239 -188 -79 -100 79 -62zm291 382l68 105 -340 218 -68 -105 340 -218zm-51 292c59,-30 113,-37 162,-21 50,16 89,53 119,112 31,60 38,114 23,163 -16,49 -52,88 -110,118 -42,22 -80,32 -114,32 -34,0 -66,-10 -94,-29 -29,-19 -53,-49 -74,-89 -21,-41 -32,-77 -32,-111 -1,-33 9,-65 28,-96 19,-31 50,-57 92,-79zm57 111c-36,19 -59,39 -68,60 -9,22 -7,44 5,67 12,24 30,38 52,44 22,5 53,-3 94,-23 34,-17 55,-37 64,-58 9,-22 7,-44 -5,-68 -12,-22 -29,-36 -51,-42 -23,-6 -53,1 -89,20zm369 308l32 112 -173 207 215 -61 32 113 -389 110 -32 -113 172 -206 -213 61 -32 -113 389 -110z"/>
    <path class="fil3" d="M7630 15572l46 163c10,35 9,64 -3,87 -12,22 -33,38 -65,47 -32,9 -60,6 -83,-8 -23,-14 -41,-41 -52,-80l-15 -54 -117 33 -28 -98 316 -89zm-108 136l7 24c5,19 12,31 21,37 9,6 18,7 28,4 10,-3 17,-8 22,-17 5,-9 5,-22 0,-40l-8 -28 -71 20zm192 153l38 95 -305 122 -38 -95 305 -122zm59 151l39 86 -115 187 165 -74 39 87 -300 134 -39 -87 114 -185 -165 74 -39 -87 300 -134zm139 301l147 228 -59 38 -92 -142 -44 28 85 132 -56 36 -85 -132 -54 35 95 147 -62 40 -150 -232 276 -178zm-4 581l249 -214 110 128c20,24 34,44 41,60 7,16 8,33 3,50 -4,17 -15,33 -31,46 -14,12 -28,19 -43,22 -15,3 -30,2 -45,-3 -10,-3 -21,-9 -33,-19 5,12 7,21 8,28 0,5 -1,12 -3,24 -2,11 -4,19 -6,24l-40 99 -75 -87 41 -106c5,-14 8,-24 7,-30 -1,-9 -4,-17 -10,-24l-6 -7 -101 87 -66 -77zm214 -50l28 33c3,3 10,9 21,17 5,4 12,6 19,6 7,0 13,-3 19,-8 8,-7 12,-15 12,-24 0,-9 -6,-20 -18,-34l-29 -34 -51 44zm249 81l74 70 -226 238 -74 -70 226 -238zm117 112l114 99c22,19 38,38 46,56 8,18 12,37 11,56 -1,19 -6,38 -15,57 -9,19 -21,36 -36,53 -23,26 -44,44 -63,54 -19,9 -38,14 -57,15 -19,1 -37,-3 -52,-10 -21,-10 -38,-21 -51,-33l-114 -99 216 -248zm28 123l-118 135 19 16c16,14 29,22 39,24 10,2 21,1 32,-5 12,-6 26,-18 43,-38 23,-26 34,-48 34,-65 0,-17 -10,-34 -30,-52l-19 -17zm230 346l37 -58 132 84 -75 118c-36,1 -66,-1 -90,-7 -23,-6 -49,-18 -75,-35 -33,-21 -56,-44 -70,-68 -14,-24 -19,-51 -16,-81 3,-29 13,-58 32,-87 19,-30 42,-52 69,-67 27,-14 56,-20 87,-16 24,3 53,15 84,35 31,19 52,37 63,52 12,15 19,32 21,50 3,18 1,38 -6,59l-92 -38c3,-13 3,-24 -2,-35 -5,-11 -13,-20 -26,-28 -19,-12 -38,-15 -57,-9 -19,6 -38,23 -56,51 -19,30 -27,55 -24,75 3,20 15,36 35,49 10,6 19,11 30,13 10,3 23,4 39,5l17 -26 -57 -36zm266 -76l243 122 -31 63 -152 -76 -23 47 141 71 -30 60 -141 -71 -29 58 156 78 -33 66 -247 -124 147 -294zm415 192l95 37 -119 306 -95 -37 119 -306zm134 52l91 26 70 208 49 -175 92 26 -89 316 -92 -26 -69 -207 -49 174 -92 -26 89 -316zm341 88l148 27c29,5 52,14 69,25 17,11 29,25 38,42 9,17 14,36 16,56 2,21 1,42 -4,64 -6,35 -15,61 -27,78 -11,18 -25,32 -42,42 -16,10 -33,16 -50,17 -23,2 -43,1 -61,-2l-148 -27 59 -323zm86 91l-32 176 25 5c21,4 36,4 46,1 10,-3 18,-10 25,-20 7,-11 13,-29 18,-55 6,-34 5,-59 -4,-73 -9,-15 -26,-24 -52,-29l-25 -5zm235 -46l102 8 -25 327 -102 -8 25 -327zm349 285l-115 3 -15 55 -104 3 114 -332 111 -3 133 324 -106 3 -18 -54zm-24 -70l-39 -117 -32 119 72 -2zm141 -206l94 -11 144 165 -22 -180 95 -12 40 326 -95 12 -143 -164 22 179 -95 12 -40 -326zm568 240l-89 -316 163 -46c30,-8 54,-12 71,-12 17,1 33,7 47,18 14,11 23,27 29,47 5,18 5,34 1,49 -4,15 -11,28 -22,40 -7,7 -17,15 -31,22 13,1 22,2 29,5 4,2 11,6 20,12 9,7 16,12 19,16l73 78 -110 31 -79 -82c-10,-11 -18,-17 -24,-19 -8,-3 -17,-3 -26,-1l-9 2 36 128 -98 28zm45 -215l41 -12c4,-1 13,-5 25,-12 6,-3 11,-8 13,-14 3,-7 3,-13 1,-20 -3,-10 -8,-17 -16,-21 -8,-4 -21,-3 -39,2l-43 12 18 64zm173 -193l252 -101 26 65 -158 63 19 49 146 -58 25 62 -146 58 24 60 162 -65 28 69 -257 103 -122 -305zm362 86l83 -49c9,13 18,22 27,26 15,7 32,6 49,-3 13,-7 21,-15 25,-24 4,-10 4,-18 0,-26 -4,-8 -11,-13 -20,-15 -10,-3 -28,0 -55,6 -44,11 -78,14 -103,7 -25,-6 -43,-21 -54,-44 -8,-15 -10,-31 -8,-49 2,-18 10,-35 23,-51 14,-17 36,-32 66,-48 37,-19 69,-26 96,-22 27,4 50,20 69,49l-83 48c-9,-12 -19,-19 -29,-22 -10,-2 -22,0 -35,6 -11,5 -17,12 -20,19 -3,7 -3,14 0,20 2,5 7,8 13,9 6,2 18,0 36,-5 44,-12 77,-17 98,-17 22,0 39,5 54,14 14,9 26,21 34,37 9,19 13,39 11,60 -2,21 -11,40 -25,58 -14,18 -36,34 -64,48 -50,25 -89,33 -118,24 -29,-9 -52,-28 -70,-57zm176 -346l228 -147 38 59 -142 92 28 44 132 -85 36 56 -132 85 35 54 147 -95 40 62 -232 150 -178 -276zm454 90l-214 -249 128 -110c24,-20 44,-34 60,-41 16,-7 33,-8 50,-3 17,4 33,15 46,31 12,14 19,28 22,43 3,15 2,30 -3,45 -3,10 -9,21 -19,33 12,-5 21,-7 28,-8 5,0 12,1 24,3 11,2 19,4 24,6l99 40 -87 75 -106 -41c-14,-5 -24,-8 -30,-7 -9,1 -17,4 -24,10l-7 6 87 101 -77 66zm-50 -214l33 -28c3,-3 9,-10 17,-21 4,-5 6,-12 6,-19 0,-7 -3,-13 -8,-19 -7,-8 -15,-12 -24,-12 -9,0 -20,6 -34,18l-34 29 44 51zm53 -215l73 -77 222 109 -121 -215 71 -75 155 314 -76 80 -324 -136zm570 -231l-71 90 32 46 -64 81 -182 -300 69 -87 334 106 -66 83 -53 -21zm-69 -27l-115 -45 70 101 44 -56zm-103 -195l166 -260 68 44 -56 87 208 133 -54 85 -208 -133 -56 87 -68 -44zm173 -275l46 -91 294 147 -46 91 -293 -147zm217 -64c-49,-22 -81,-53 -96,-92 -15,-40 -11,-84 11,-132 23,-50 53,-82 92,-97 39,-15 82,-11 131,10 35,16 61,35 78,57 17,22 27,47 29,75 2,28 -4,58 -19,92 -15,34 -33,59 -54,77 -21,17 -46,27 -75,31 -29,3 -62,-3 -97,-19zm42 -92c30,14 54,18 73,13 18,-5 32,-18 41,-37 9,-20 10,-38 2,-55 -8,-17 -29,-33 -62,-48 -28,-13 -51,-16 -69,-11 -18,6 -32,18 -40,38 -8,19 -9,37 -1,54 8,17 27,33 58,47zm-52 -293l26 -91 208 -70 -175 -49 26 -92 316 89 -26 92 -207 69 174 49 -26 92 -316 -89z"/>
   </g>
  </g>
 </g>
</svg>
