<!DOCTYPE svg PUBLIC "-//W3C//DTD SVG 20010904//EN" "http://www.w3.org/TR/2001/REC-SVG-20010904/DTD/svg10.dtd">
<svg version="1.0" xmlns="http://www.w3.org/2000/svg" width="85px" height="375px" viewBox="0 0 850 3750" preserveAspectRatio="xMidYMid meet">
<g id="layer101" fill="#bb9c66" stroke="none">
 <path d="M22 3727 c-29 -30 -28 -38 8 -72 24 -23 33 -26 42 -17 10 10 27 -3 80 -55 l68 -67 -72 -73 c-40 -40 -69 -76 -65 -80 4 -4 40 25 80 64 72 71 72 72 88 50 10 -12 20 -19 25 -15 4 5 -1 17 -11 28 -19 20 -18 22 60 100 48 48 88 80 100 80 12 0 52 -31 98 -78 68 -69 76 -80 63 -92 -9 -7 -16 -20 -16 -28 0 -13 4 -12 22 6 l22 22 73 -72 c40 -40 76 -69 80 -65 4 4 -25 40 -65 80 l-72 73 68 67 c53 52 70 65 80 55 9 -9 18 -6 42 17 36 35 37 45 7 73 -30 29 -38 28 -72 -8 -22 -22 -25 -32 -17 -43 9 -10 -3 -28 -56 -80 l-68 -67 -69 70 c-38 38 -75 70 -82 70 -6 0 -13 10 -15 23 -2 14 -10 22 -23 22 -13 0 -21 -8 -23 -22 -2 -13 -9 -23 -15 -23 -7 0 -44 -32 -82 -70 l-69 -70 -68 67 c-53 52 -65 70 -56 80 8 11 5 21 -17 43 -35 36 -45 37 -73 7z"/>
 <path d="M325 3486 c-61 -37 -88 -93 -83 -171 3 -50 10 -70 32 -100 51 -67 145 -92 223 -60 74 31 113 92 113 178 0 65 -35 125 -90 156 -54 30 -142 29 -195 -3z m186 -19 c110 -74 104 -223 -10 -284 -56 -29 -96 -29 -152 0 -152 81 -96 307 76 307 38 0 61 -6 86 -23z"/>
 <path d="M37 3343 c-12 -11 -7 -33 8 -39 20 -8 45 13 38 32 -5 14 -34 19 -46 7z"/>
 <path d="M765 3340 c-10 -17 20 -44 40 -36 9 3 15 14 13 23 -4 21 -43 30 -53 13z"/>
 <path d="M80 3303 c0 -4 34 -42 76 -84 l76 -76 -68 -61 c-37 -34 -65 -64 -61 -68 3 -4 37 21 75 54 l68 61 72 -72 c39 -39 75 -68 79 -64 4 4 -26 40 -65 80 -56 56 -70 75 -60 85 15 15 2 28 -15 14 -10 -9 -30 5 -87 63 -70 70 -90 85 -90 68z"/>
 <path d="M680 3235 c-49 -49 -78 -71 -84 -65 -6 6 -17 10 -25 10 -13 0 -13 -3 2 -17 16 -16 13 -21 -55 -90 -40 -40 -69 -76 -65 -80 4 -4 40 25 80 65 l72 71 62 -59 c33 -33 67 -60 74 -60 8 0 -16 30 -54 67 l-67 68 76 76 c42 42 72 79 67 82 -5 3 -43 -27 -83 -68z"/>
 <path d="M27 3002 c-34 -35 -34 -42 3 -77 22 -22 32 -25 43 -17 10 9 28 -3 80 -56 l67 -68 -65 -64 c-36 -35 -65 -71 -65 -79 0 -9 33 17 73 57 l73 72 22 -22 c18 -18 22 -19 22 -6 0 8 -7 21 -16 28 -13 12 -5 23 63 92 46 47 86 78 98 78 12 0 52 -31 98 -78 68 -69 76 -80 63 -92 -9 -7 -16 -19 -16 -27 0 -10 -11 -7 -43 12 -51 29 -140 34 -185 11 -165 -86 -121 -331 65 -352 64 -8 129 19 169 71 39 52 46 147 15 201 l-22 37 23 24 22 24 73 -73 c40 -39 76 -69 80 -65 4 4 -25 40 -65 80 l-72 73 68 67 c53 52 70 65 80 55 9 -9 18 -6 42 17 37 36 37 44 0 80 l-30 29 -33 -32 c-27 -27 -30 -35 -20 -51 10 -16 2 -27 -56 -85 l-67 -66 -69 70 c-38 38 -75 70 -82 70 -6 0 -13 10 -15 23 -2 14 -10 22 -23 22 -13 0 -21 -8 -23 -22 -2 -13 -9 -23 -15 -23 -7 0 -44 -32 -82 -70 l-69 -70 -68 67 c-53 53 -65 70 -56 80 9 11 4 22 -23 49 l-35 34 -27 -28z m492 -270 c95 -70 95 -206 1 -268 -76 -50 -153 -41 -214 26 -41 46 -51 75 -43 132 16 119 160 181 256 110z"/>
 <path d="M36 2611 c-11 -18 6 -42 28 -39 29 4 29 42 -1 46 -11 2 -24 -1 -27 -7z"/>
 <path d="M767 2606 c-7 -19 18 -40 39 -32 8 3 14 14 12 23 -4 22 -43 29 -51 9z"/>
 <path d="M87 2573 c-4 -4 26 -41 68 -83 l76 -76 -66 -63 c-36 -35 -64 -66 -61 -68 6 -7 70 44 111 86 l29 31 73 -72 c40 -39 76 -69 80 -65 4 4 -25 40 -65 80 -68 69 -71 74 -55 90 16 16 16 17 1 17 -9 0 -20 -5 -24 -11 -4 -7 -37 19 -83 65 -42 42 -80 73 -84 69z"/>
 <path d="M680 2505 c-58 -58 -77 -72 -87 -63 -17 14 -30 1 -15 -14 10 -10 -4 -29 -60 -85 -39 -40 -69 -76 -65 -80 4 -4 40 25 80 65 l72 71 62 -59 c33 -33 67 -60 74 -60 8 0 -16 30 -54 67 l-67 68 76 76 c42 42 72 79 67 82 -5 3 -43 -27 -83 -68z"/>
 <path d="M761 2266 c-23 -24 -32 -40 -27 -52 5 -13 -10 -34 -56 -81 l-62 -63 -78 77 c-43 43 -78 73 -79 68 -1 -6 -4 1 -8 15 -9 33 -38 38 -50 8 -5 -13 -43 -57 -85 -98 l-76 -74 -65 64 c-53 52 -63 68 -58 87 6 24 -28 73 -51 73 -14 0 -66 -51 -66 -65 0 -6 14 -24 30 -40 27 -26 32 -27 46 -14 14 14 22 9 82 -53 l66 -69 -69 -69 c-38 -38 -66 -73 -62 -77 4 -4 39 24 77 62 68 68 70 68 90 50 17 -16 20 -16 20 -2 0 9 -4 19 -10 22 -18 11 -11 21 63 101 52 57 78 78 93 76 11 -2 55 -38 98 -81 67 -68 75 -79 62 -91 -9 -7 -16 -20 -16 -28 0 -13 4 -12 22 6 l22 22 73 -72 c40 -40 76 -69 80 -65 4 4 -25 40 -65 80 l-72 73 64 63 c56 56 67 63 81 51 13 -11 20 -9 45 15 37 36 38 54 2 88 l-28 27 -33 -34z"/>
 <path d="M335 2031 c-153 -94 -110 -323 67 -347 55 -8 107 8 150 44 90 76 75 241 -27 299 -52 29 -146 32 -190 4z m184 -29 c45 -33 71 -81 71 -129 0 -82 -43 -141 -120 -164 -100 -30 -210 56 -210 163 0 40 35 104 71 131 53 39 135 39 188 -1z"/>
 <path d="M42 1868 c2 -15 10 -23 23 -23 13 0 21 8 23 23 3 18 -1 22 -23 22 -22 0 -26 -4 -23 -22z"/>
 <path d="M772 1868 c2 -15 10 -23 23 -23 30 0 27 39 -3 43 -20 3 -23 0 -20 -20z"/>
 <path d="M87 1843 c-3 -5 28 -43 68 -83 l75 -74 -62 -63 c-34 -34 -59 -66 -55 -70 4 -4 36 21 70 55 l63 62 69 -70 c38 -39 74 -70 81 -70 6 0 10 -10 10 -22 -1 -15 6 -24 19 -26 11 -2 55 -38 97 -80 76 -74 77 -77 62 -100 -20 -31 -9 -43 12 -13 l17 23 73 -73 c40 -40 77 -70 81 -66 4 4 -25 40 -65 80 l-72 73 63 62 c46 46 68 61 81 56 18 -7 76 39 76 61 0 6 -13 23 -28 38 l-28 27 -33 -34 c-23 -23 -31 -40 -27 -53 4 -14 -10 -35 -57 -81 l-63 -62 -69 70 c-38 39 -75 70 -82 70 -7 0 -13 9 -13 20 0 11 -8 23 -17 27 -10 3 -53 40 -95 81 -73 71 -77 77 -61 94 15 16 15 18 0 18 -9 0 -19 -5 -23 -11 -4 -7 -37 19 -84 66 -43 42 -80 73 -83 68z"/>
 <path d="M680 1775 c-58 -58 -77 -72 -87 -63 -17 14 -30 1 -15 -14 10 -10 -4 -29 -60 -85 -39 -40 -69 -76 -65 -80 4 -4 40 25 80 64 l72 72 63 -60 c86 -81 103 -75 19 8 l-67 68 76 76 c42 42 72 79 67 82 -5 3 -43 -27 -83 -68z"/>
 <path d="M32 1537 c-38 -39 -39 -47 -9 -75 30 -28 38 -28 70 6 34 35 34 42 -1 75 l-28 27 -32 -33z"/>
 <path d="M312 1408 l-73 -73 -65 68 c-36 38 -68 66 -71 63 -7 -6 11 -29 81 -104 l40 -42 -69 -70 c-38 -38 -66 -73 -62 -77 4 -4 39 24 77 62 66 66 70 68 88 52 24 -22 37 -9 15 15 -16 18 -13 22 55 91 40 40 72 76 72 80 0 17 -20 3 -88 -65z"/>
 <path d="M345 1306 c-68 -29 -112 -115 -101 -194 20 -146 193 -211 307 -115 43 37 59 74 59 140 0 112 -71 183 -180 182 -30 0 -69 -6 -85 -13z m166 -29 c104 -70 108 -215 7 -277 -77 -47 -155 -35 -212 32 -45 52 -55 106 -30 167 37 92 155 132 235 78z"/>
 <path d="M42 1138 c2 -17 9 -23 26 -22 12 0 22 -4 22 -10 0 -7 31 -43 70 -81 l70 -69 -62 -63 c-34 -34 -59 -66 -55 -70 4 -4 36 21 70 55 l62 61 77 -75 c42 -41 78 -83 80 -92 4 -22 42 -22 46 0 2 9 38 50 80 92 l76 74 63 -59 c88 -81 103 -75 20 9 l-67 68 75 74 c40 40 71 78 68 83 -3 5 -40 -25 -82 -67 -60 -59 -79 -74 -89 -64 -15 15 -28 2 -14 -14 8 -10 -7 -32 -65 -91 -41 -42 -80 -77 -87 -77 -6 0 -45 35 -88 77 -73 72 -76 78 -61 95 18 20 4 25 -15 6 -10 -10 -30 5 -92 67 -44 44 -80 88 -80 97 0 13 -8 18 -26 18 -21 0 -25 -4 -22 -22z"/>
 <path d="M772 1138 c4 -30 43 -33 43 -3 0 13 -8 21 -23 23 -20 3 -23 0 -20 -20z"/>
 <path d="M25 810 l-29 -30 32 -33 32 -32 32 32 32 33 -29 30 c-16 16 -32 30 -35 30 -3 0 -19 -14 -35 -30z"/>
 <path d="M755 810 l-29 -30 32 -32 32 -32 30 29 c36 35 37 45 7 73 -30 29 -38 28 -72 -8z"/>
 <path d="M310 685 l-74 -75 -64 70 c-35 39 -68 67 -74 64 -5 -3 21 -37 58 -76 l67 -69 -68 -69 c-38 -38 -66 -73 -62 -77 4 -4 38 23 75 60 64 63 69 66 85 50 22 -22 35 -8 14 15 -16 17 -12 22 58 92 71 70 85 90 67 90 -4 0 -41 -34 -82 -75z"/>
 <path d="M450 753 c0 -4 33 -40 72 -80 65 -66 71 -75 60 -93 -18 -29 -15 -35 8 -15 20 18 22 18 90 -50 38 -38 73 -66 77 -62 4 4 -24 39 -62 77 l-69 70 62 63 c34 34 62 69 62 77 0 8 -32 -17 -70 -55 l-70 -69 -73 72 c-68 68 -87 82 -87 65z"/>
 <path d="M345 583 c-68 -36 -105 -95 -105 -168 0 -104 81 -185 185 -185 104 0 185 81 185 185 0 48 -25 109 -56 136 -56 49 -150 64 -209 32z m160 -26 c110 -63 110 -221 0 -284 -79 -45 -177 -17 -222 62 -81 143 79 303 222 222z"/>
 <path d="M40 416 c0 -18 5 -26 17 -26 10 0 53 -35 95 -77 l78 -77 -62 -63 c-34 -34 -59 -66 -55 -70 4 -4 36 21 70 55 l63 62 77 -78 c42 -42 77 -85 77 -95 0 -12 8 -17 26 -17 21 0 25 4 22 23 -2 16 -9 22 -25 21 -13 0 -23 4 -23 10 0 7 -31 43 -70 81 -65 65 -69 70 -53 87 13 15 14 18 2 18 -8 0 -19 -4 -25 -10 -6 -6 -33 14 -79 60 -38 39 -74 70 -81 70 -6 0 -10 10 -10 23 1 16 -5 23 -21 25 -19 3 -23 -1 -23 -22z"/>
 <path d="M764 425 c-8 -20 4 -35 27 -35 14 0 19 7 19 25 0 18 -5 25 -20 25 -11 0 -23 -7 -26 -15z"/>
 <path d="M673 318 c-62 -62 -74 -70 -88 -58 -20 17 -32 5 -15 -15 12 -14 4 -26 -55 -85 -38 -38 -66 -73 -62 -77 4 -4 40 25 80 65 l72 72 62 -62 c34 -34 66 -58 70 -54 4 4 -21 35 -56 68 l-64 60 72 72 c39 39 71 75 71 79 0 17 -20 3 -87 -65z"/>
 <path d="M27 92 c-33 -34 -33 -43 -4 -70 30 -28 38 -28 70 6 l27 28 -33 32 -33 32 -27 -28z"/>
 <path d="M757 92 c-33 -34 -33 -43 -4 -70 30 -29 38 -28 72 8 l29 30 -29 30 c-16 17 -32 30 -35 30 -3 0 -18 -13 -33 -28z"/>
 </g>

</svg>