<svg version="1.0" xmlns="http://www.w3.org/2000/svg" width="85" height="375" viewBox="0 0 850 3750"><g fill="#bb9c66"><path d="M22 3727c-29-30-28-38 8-72 24-23 33-26 42-17 10 10 27-3 80-55l68-67-72-73c-40-40-69-76-65-80s40 25 80 64c72 71 72 72 88 50 10-12 20-19 25-15 4 5-1 17-11 28-19 20-18 22 60 100 48 48 88 80 100 80s52-31 98-78c68-69 76-80 63-92-9-7-16-20-16-28 0-13 4-12 22 6l22 22 73-72c40-40 76-69 80-65s-25 40-65 80l-72 73 68 67c53 52 70 65 80 55 9-9 18-6 42 17 36 35 37 45 7 73-30 29-38 28-72-8-22-22-25-32-17-43 9-10-3-28-56-80l-68-67-69 70c-38 38-75 70-82 70-6 0-13 10-15 23-2 14-10 22-23 22s-21-8-23-22c-2-13-9-23-15-23-7 0-44-32-82-70l-69-70-68 67c-53 52-65 70-56 80 8 11 5 21-17 43-35 36-45 37-73 7z"/><path d="M325 3486c-61-37-88-93-83-171 3-50 10-70 32-100 51-67 145-92 223-60 74 31 113 92 113 178 0 65-35 125-90 156-54 30-142 29-195-3zm186-19c110-74 104-223-10-284-56-29-96-29-152 0-152 81-96 307 76 307 38 0 61-6 86-23zM37 3343c-12-11-7-33 8-39 20-8 45 13 38 32-5 14-34 19-46 7zm728-3c-10-17 20-44 40-36 9 3 15 14 13 23-4 21-43 30-53 13zm-685-37c0-4 34-42 76-84l76-76-68-61c-37-34-65-64-61-68 3-4 37 21 75 54l68 61 72-72c39-39 75-68 79-64s-26 40-65 80c-56 56-70 75-60 85 15 15 2 28-15 14-10-9-30 5-87 63-70 70-90 85-90 68zm600-68c-49-49-78-71-84-65s-17 10-25 10c-13 0-13-3 2-17 16-16 13-21-55-90-40-40-69-76-65-80s40 25 80 65l72 71 62-59c33-33 67-60 74-60 8 0-16 30-54 67l-67 68 76 76c42 42 72 79 67 82s-43-27-83-68z"/><path d="M27 3002c-34-35-34-42 3-77 22-22 32-25 43-17 10 9 28-3 80-56l67-68-65-64c-36-35-65-71-65-79 0-9 33 17 73 57l73 72 22-22c18-18 22-19 22-6 0 8-7 21-16 28-13 12-5 23 63 92 46 47 86 78 98 78s52-31 98-78c68-69 76-80 63-92-9-7-16-19-16-27 0-10-11-7-43 12-51 29-140 34-185 11-165-86-121-331 65-352 64-8 129 19 169 71 39 52 46 147 15 201l-22 37 23 24 22 24 73-73c40-39 76-69 80-65s-25 40-65 80l-72 73 68 67c53 52 70 65 80 55 9-9 18-6 42 17 37 36 37 44 0 80l-30 29-33-32c-27-27-30-35-20-51s2-27-56-85l-67-66-69 70c-38 38-75 70-82 70-6 0-13 10-15 23-2 14-10 22-23 22s-21-8-23-22c-2-13-9-23-15-23-7 0-44-32-82-70l-69-70-68 67c-53 53-65 70-56 80 9 11 4 22-23 49l-35 34-27-28zm492-270c95-70 95-206 1-268-76-50-153-41-214 26-41 46-51 75-43 132 16 119 160 181 256 110zM36 2611c-11-18 6-42 28-39 29 4 29 42-1 46-11 2-24-1-27-7zm731-5c-7-19 18-40 39-32 8 3 14 14 12 23-4 22-43 29-51 9z"/><path d="M87 2573c-4-4 26-41 68-83l76-76-66-63c-36-35-64-66-61-68 6-7 70 44 111 86l29 31 73-72c40-39 76-69 80-65s-25 40-65 80c-68 69-71 74-55 90s16 17 1 17c-9 0-20-5-24-11-4-7-37 19-83 65-42 42-80 73-84 69zm593-68c-58-58-77-72-87-63-17 14-30 1-15-14 10-10-4-29-60-85-39-40-69-76-65-80s40 25 80 65l72 71 62-59c33-33 67-60 74-60 8 0-16 30-54 67l-67 68 76 76c42 42 72 79 67 82s-43-27-83-68z"/><path d="M761 2266c-23-24-32-40-27-52 5-13-10-34-56-81l-62-63-78 77c-43 43-78 73-79 68-1-6-4 1-8 15-9 33-38 38-50 8-5-13-43-57-85-98l-76-74-65 64c-53 52-63 68-58 87 6 24-28 73-51 73-14 0-66-51-66-65 0-6 14-24 30-40 27-26 32-27 46-14 14 14 22 9 82-53l66-69-69-69c-38-38-66-73-62-77s39 24 77 62c68 68 70 68 90 50 17-16 20-16 20-2 0 9-4 19-10 22-18 11-11 21 63 101 52 57 78 78 93 76 11-2 55-38 98-81 67-68 75-79 62-91-9-7-16-20-16-28 0-13 4-12 22 6l22 22 73-72c40-40 76-69 80-65s-25 40-65 80l-72 73 64 63c56 56 67 63 81 51 13-11 20-9 45 15 37 36 38 54 2 88l-28 27-33-34z"/><path d="M335 2031c-153-94-110-323 67-347 55-8 107 8 150 44 90 76 75 241-27 299-52 29-146 32-190 4zm184-29c45-33 71-81 71-129 0-82-43-141-120-164-100-30-210 56-210 163 0 40 35 104 71 131 53 39 135 39 188-1zM42 1868c2-15 10-23 23-23s21 8 23 23c3 18-1 22-23 22s-26-4-23-22zm730 0c2-15 10-23 23-23 30 0 27 39-3 43-20 3-23 0-20-20z"/><path d="M87 1843c-3-5 28-43 68-83l75-74-62-63c-34-34-59-66-55-70s36 21 70 55l63 62 69-70c38-39 74-70 81-70 6 0 10-10 10-22-1-15 6-24 19-26 11-2 55-38 97-80 76-74 77-77 62-100-20-31-9-43 12-13l17 23 73-73c40-40 77-70 81-66s-25 40-65 80l-72 73 63 62c46 46 68 61 81 56 18-7 76 39 76 61 0 6-13 23-28 38l-28 27-33-34c-23-23-31-40-27-53 4-14-10-35-57-81l-63-62-69 70c-38 39-75 70-82 70s-13 9-13 20-8 23-17 27c-10 3-53 40-95 81-73 71-77 77-61 94 15 16 15 18 0 18-9 0-19-5-23-11-4-7-37 19-84 66-43 42-80 73-83 68z"/><path d="M680 1775c-58-58-77-72-87-63-17 14-30 1-15-14 10-10-4-29-60-85-39-40-69-76-65-80s40 25 80 64l72 72 63-60c86-81 103-75 19 8l-67 68 76 76c42 42 72 79 67 82s-43-27-83-68zM32 1537c-38-39-39-47-9-75s38-28 70 6c34 35 34 42-1 75l-28 27-32-33zm280-129l-73-73-65 68c-36 38-68 66-71 63-7-6 11-29 81-104l40-42-69-70c-38-38-66-73-62-77s39 24 77 62c66 66 70 68 88 52 24-22 37-9 15 15-16 18-13 22 55 91 40 40 72 76 72 80 0 17-20 3-88-65zm33-102c-68-29-112-115-101-194 20-146 193-211 307-115 43 37 59 74 59 140 0 112-71 183-180 182-30 0-69-6-85-13zm166-29c104-70 108-215 7-277-77-47-155-35-212 32-45 52-55 106-30 167 37 92 155 132 235 78z"/><path d="M42 1138c2-17 9-23 26-22 12 0 22-4 22-10 0-7 31-43 70-81l70-69-62-63c-34-34-59-66-55-70s36 21 70 55l62 61 77-75c42-41 78-83 80-92 4-22 42-22 46 0 2 9 38 50 80 92l76 74 63-59c88-81 103-75 20 9l-67 68 75 74c40 40 71 78 68 83s-40-25-82-67c-60-59-79-74-89-64-15 15-28 2-14-14 8-10-7-32-65-91-41-42-80-77-87-77-6 0-45 35-88 77-73 72-76 78-61 95 18 20 4 25-15 6-10-10-30 5-92 67-44 44-80 88-80 97 0 13-8 18-26 18-21 0-25-4-22-22zm730 0c4-30 43-33 43-3 0 13-8 21-23 23-20 3-23 0-20-20zM25 810l-29-30 32-33 32-32 32 32 32 33-29 30c-16 16-32 30-35 30s-19-14-35-30z"/><path d="M755 810l-29-30 32-32 32-32 30 29c36 35 37 45 7 73-30 29-38 28-72-8zM310 685l-74-75-64 70c-35 39-68 67-74 64-5-3 21-37 58-76l67-69-68-69c-38-38-66-73-62-77s38 23 75 60c64 63 69 66 85 50 22-22 35-8 14 15-16 17-12 22 58 92 71 70 85 90 67 90-4 0-41-34-82-75zm140 68c0-4 33-40 72-80 65-66 71-75 60-93-18-29-15-35 8-15 20 18 22 18 90-50 38-38 73-66 77-62s-24 39-62 77l-69 70 62 63c34 34 62 69 62 77s-32-17-70-55l-70-69-73 72c-68 68-87 82-87 65z"/><path d="M345 583c-68-36-105-95-105-168 0-104 81-185 185-185s185 81 185 185c0 48-25 109-56 136-56 49-150 64-209 32zm160-26c110-63 110-221 0-284-79-45-177-17-222 62-81 143 79 303 222 222z"/><path d="M40 416c0-18 5-26 17-26 10 0 53-35 95-77l78-77-62-63c-34-34-59-66-55-70s36 21 70 55l63 62 77-78c42-42 77-85 77-95 0-12 8-17 26-17 21 0 25 4 22 23-2 16-9 22-25 21-13 0-23 4-23 10 0 7-31 43-70 81-65 65-69 70-53 87 13 15 14 18 2 18-8 0-19-4-25-10s-33 14-79 60c-38 39-74 70-81 70-6 0-10 10-10 23 1 16-5 23-21 25-19 3-23-1-23-22zm724 9c-8-20 4-35 27-35 14 0 19 7 19 25s-5 25-20 25c-11 0-23-7-26-15zm-91-107c-62-62-74-70-88-58-20 17-32 5-15-15 12-14 4-26-55-85-38-38-66-73-62-77s40 25 80 65l72 72 62-62c34-34 66-58 70-54s-21 35-56 68l-64 60 72 72c39 39 71 75 71 79 0 17-20 3-87-65zM27 92C-6 58-6 49 23 22 53-6 61-6 93 28l27 28-33 32-33 32-27-28zm730 0c-33-34-33-43-4-70 30-29 38-28 72 8l29 30-29 30c-16 17-32 30-35 30s-18-13-33-28z"/></g></svg>